# xmcd CD database file
#
# Track frame offsets:
#	150
#	12990
#	28605
#	40482
#	52435
#	65535
#	87142
#	99630
#	121965
#	134737
#	155207
#	171877
#	184020
#	199467
#
# Disc length: 2828 seconds
#
# Revision: 0
# Processed by: cddbd v1.5.1PL0 Copyright (c) Steve Scherf et al.
# Submitted via: CDex 1.40Release
#
DISCID=d40b0a0e
DTITLE=John Denver - The Gretest Hits
DYEAR=1997
DGENRE=Country
TTITLE0=ANNIE'S SONG
TTITLE1=LEAVING ON A JET PLANE
TTITLE2=ON THE ROAD
TTITLE3=TAKE ME HOME COUNTRY ROADS
TTITLE4=PERHAPS LOVE
TTITLE5=ROCKY MOUNTAIN HIGH
TTITLE6=SWEET SURRENDER
TTITLE7=SUNSHINE ON MY SHOULDERS
TTITLE8=FOLLOW ME
TTITLE9=BACK HOME AGAIN
TTITLE10=FLY AWAY
TTITLE11=THANK GOD I'M A COUNTRY BOY
TTITLE12=CALYPSO
TTITLE13=FAREWELL ANDROMEDA
EXTD=YEAR: 1997 ID3G: 2
EXTT0=
EXTT1=
EXTT2=
EXTT3=
EXTT4=
EXTT5=
EXTT6=
EXTT7=
EXTT8=
EXTT9=
EXTT10=
EXTT11=
EXTT12=
EXTT13=
PLAYORDER=
